<?xml version="1.0" encoding="utf-8"?>
<!-- Generator: Adobe Illustrator 16.0.0, SVG Export Plug-In . SVG Version: 6.00 Build 0)  -->
<!DOCTYPE svg PUBLIC "-//W3C//DTD SVG 1.0//EN" "http://www.w3.org/TR/2001/REC-SVG-20010904/DTD/svg10.dtd">
<svg version="1.0" id="Layer_1" xmlns="http://www.w3.org/2000/svg" xmlns:xlink="http://www.w3.org/1999/xlink" x="0px" y="0px"
	 width="167.75px" height="60.75px" viewBox="0 0 167.75 60.75" enable-background="new 0 0 167.75 60.75" xml:space="preserve">
<g>
	<g>
		<path fill="#FFFFFF" d="M26.219,2.258h6.295L26.285,42.12h-5.77l-3.387-21.745L13.938,42.12H8.189L1.525,2.258h6.293l3.146,21.351
			L13.85,2.258h6.295l3.146,21.351L26.219,2.258z"/>
		<path fill="#FFFFFF" d="M39.463,32.963l-1.465,9.157h-6.25l6.754-39.861h8.281l6.666,39.861h-6.293l-1.422-9.157H39.463z
			 M42.609,11.393l-2.229,15.713h4.459L42.609,11.393z"/>
		<path fill="#FFFFFF" d="M60.07,25.423L52.029,2.258h6.6l4.469,14.314l4.426-14.314h6.643L66.08,25.423V42.12h-6.01V25.423z"/>
		<path fill="#FFFFFF" d="M86.273,42.622c-2.652,0-4.902-0.925-6.752-2.775c-1.852-1.85-2.775-4.094-2.775-6.731V11.284
			c0-2.637,0.932-4.884,2.797-6.742s4.109-2.787,6.73-2.787c2.652,0,4.898,0.933,6.742,2.797c1.844,1.865,2.764,4.108,2.764,6.731
			v4.546h-6.227v-4.655c0-0.962-0.34-1.781-1.018-2.459C87.857,8.039,87.039,7.7,86.076,7.7c-0.945,0-1.754,0.339-2.424,1.016
			c-0.672,0.678-1.006,1.497-1.006,2.459V33.05c0,0.961,0.334,1.778,1.006,2.448c0.67,0.67,1.479,1.005,2.424,1.005
			c0.963,0,1.781-0.335,2.459-1.005s1.018-1.486,1.018-2.448v-5.485h6.227v5.551c0,2.652-0.932,4.899-2.797,6.742
			S88.881,42.622,86.273,42.622z"/>
		<path fill="#FFFFFF" d="M110.094,1.777c2.652,0,4.906,0.933,6.764,2.797c1.857,1.865,2.787,4.116,2.787,6.753v21.745
			c0,2.652-0.932,4.906-2.797,6.764s-4.117,2.786-6.754,2.786s-4.877-0.932-6.719-2.797c-1.844-1.865-2.766-4.116-2.766-6.753
			V11.328c0-2.651,0.934-4.906,2.797-6.764C105.271,2.706,107.5,1.777,110.094,1.777z M113.373,11.215
			c0-0.96-0.332-1.772-0.994-2.435c-0.664-0.662-1.477-0.994-2.438-0.994c-0.947,0-1.76,0.332-2.438,0.994
			c-0.676,0.663-1.016,1.474-1.016,2.435v21.816c0,0.946,0.34,1.754,1.016,2.424c0.678,0.67,1.49,1.004,2.438,1.004
			c0.961,0,1.773-0.334,2.438-1.004c0.662-0.67,0.994-1.478,0.994-2.424V11.215z"/>
		<path fill="#FFFFFF" d="M134.309,1.777c2.652,0,4.906,0.933,6.764,2.797c1.857,1.865,2.787,4.116,2.787,6.753v21.745
			c0,2.652-0.932,4.906-2.797,6.764s-4.117,2.786-6.754,2.786s-4.877-0.932-6.719-2.797c-1.844-1.865-2.766-4.116-2.766-6.753
			V11.328c0-2.651,0.934-4.906,2.797-6.764C129.486,2.706,131.715,1.777,134.309,1.777z M137.588,11.215
			c0-0.96-0.332-1.772-0.994-2.435c-0.664-0.662-1.477-0.994-2.438-0.994c-0.947,0-1.76,0.332-2.438,0.994
			c-0.676,0.663-1.016,1.474-1.016,2.435v21.816c0,0.946,0.34,1.754,1.016,2.424c0.678,0.67,1.49,1.004,2.438,1.004
			c0.961,0,1.773-0.334,2.438-1.004c0.662-0.67,0.994-1.478,0.994-2.424V11.215z"/>
		<path fill="#FFFFFF" d="M165.561,42.12H149.17V2.258h6.01v33.895h10.381V42.12z"/>
	</g>
	<g>
		<path fill="#FFFFFF" d="M6.924,57.74H5.121V45.783h5.133v1.803h-3.33v3.278h2.432v1.803H6.924V57.74z"/>
		<path fill="#FFFFFF" d="M14.338,45.638c0.795,0,1.471,0.28,2.029,0.839c0.557,0.56,0.836,1.234,0.836,2.025v6.523
			c0,0.795-0.281,1.472-0.84,2.029c-0.561,0.557-1.234,0.836-2.025,0.836s-1.463-0.28-2.016-0.839
			c-0.553-0.559-0.83-1.234-0.83-2.025v-6.523c0-0.795,0.279-1.472,0.84-2.029C12.891,45.917,13.559,45.638,14.338,45.638z
			 M15.32,48.47c0-0.289-0.1-0.532-0.297-0.73c-0.199-0.199-0.443-0.298-0.732-0.298c-0.283,0-0.527,0.1-0.73,0.298
			s-0.305,0.442-0.305,0.73v6.544c0,0.284,0.102,0.526,0.305,0.727c0.203,0.201,0.447,0.301,0.73,0.301
			c0.289,0,0.533-0.101,0.732-0.301c0.197-0.201,0.297-0.443,0.297-0.727V48.47z"/>
		<path fill="#FFFFFF" d="M21.602,45.638c0.795,0,1.471,0.28,2.029,0.839c0.557,0.56,0.836,1.234,0.836,2.025v6.523
			c0,0.795-0.281,1.472-0.84,2.029c-0.561,0.557-1.234,0.836-2.025,0.836s-1.463-0.28-2.016-0.839
			c-0.553-0.559-0.83-1.234-0.83-2.025v-6.523c0-0.795,0.279-1.472,0.84-2.029C20.154,45.917,20.822,45.638,21.602,45.638z
			 M22.584,48.47c0-0.289-0.1-0.532-0.297-0.73c-0.199-0.199-0.443-0.298-0.732-0.298c-0.283,0-0.527,0.1-0.73,0.298
			s-0.305,0.442-0.305,0.73v6.544c0,0.284,0.102,0.526,0.305,0.727c0.203,0.201,0.447,0.301,0.73,0.301
			c0.289,0,0.533-0.101,0.732-0.301c0.197-0.201,0.297-0.443,0.297-0.727V48.47z"/>
		<path fill="#FFFFFF" d="M31.709,54.881c0,0.787-0.277,1.46-0.832,2.02c-0.555,0.559-1.223,0.839-2,0.839h-2.832V45.783h2.832
			c0.787,0,1.455,0.28,2.006,0.839c0.551,0.56,0.826,1.23,0.826,2.013V54.881z M27.848,55.957h1.086
			c0.287,0,0.529-0.104,0.725-0.311s0.295-0.452,0.295-0.731v-6.254c0-0.284-0.102-0.528-0.301-0.731
			c-0.201-0.204-0.441-0.305-0.719-0.305h-1.086V55.957z"/>
		<path fill="#FFFFFF" d="M39.143,54.77c0.014,0.835-0.203,1.547-0.648,2.137c-0.293,0.402-0.707,0.684-1.24,0.846
			c-0.287,0.092-0.621,0.138-1.002,0.138c-0.709,0-1.293-0.175-1.758-0.524c-0.385-0.289-0.689-0.679-0.918-1.17
			c-0.227-0.492-0.357-1.059-0.393-1.701l1.711-0.118c0.078,0.695,0.264,1.197,0.557,1.508c0.215,0.236,0.461,0.347,0.742,0.334
			c0.393-0.013,0.707-0.205,0.943-0.577c0.123-0.188,0.184-0.453,0.184-0.793c0-0.502-0.225-0.999-0.676-1.488
			c-0.357-0.336-0.893-0.841-1.605-1.515c-0.6-0.577-1.021-1.095-1.266-1.553c-0.266-0.516-0.4-1.075-0.4-1.678
			c0-1.088,0.365-1.912,1.096-2.472c0.449-0.336,1.01-0.505,1.678-0.505c0.643,0,1.193,0.145,1.652,0.433
			c0.354,0.223,0.641,0.535,0.859,0.935s0.352,0.86,0.398,1.38l-1.73,0.314c-0.047-0.489-0.188-0.87-0.418-1.141
			c-0.168-0.201-0.404-0.302-0.715-0.302c-0.328,0-0.58,0.146-0.754,0.439c-0.141,0.236-0.211,0.529-0.211,0.878
			c0,0.546,0.236,1.104,0.709,1.672c0.18,0.214,0.445,0.467,0.799,0.76c0.42,0.35,0.697,0.594,0.834,0.734
			c0.441,0.446,0.783,0.885,1.027,1.317c0.115,0.201,0.207,0.389,0.275,0.564C39.045,54.047,39.135,54.429,39.143,54.77z"/>
		<path fill="#FFFFFF" d="M43.936,54.993l-0.439,2.747h-1.875l2.025-11.957h2.484l2,11.957h-1.889l-0.426-2.747H43.936z
			 M44.879,48.523l-0.668,4.713h1.338L44.879,48.523z"/>
		<path fill="#FFFFFF" d="M51.678,45.783l2.385,8.03v-8.03h1.803V57.74h-1.93l-2.48-7.657v7.657h-1.803V45.783H51.678z"/>
		<path fill="#FFFFFF" d="M63.143,54.881c0,0.787-0.277,1.46-0.832,2.02c-0.555,0.559-1.223,0.839-2,0.839h-2.832V45.783h2.832
			c0.787,0,1.455,0.28,2.006,0.839c0.551,0.56,0.826,1.23,0.826,2.013V54.881z M59.281,55.957h1.086
			c0.287,0,0.529-0.104,0.725-0.311s0.295-0.452,0.295-0.731v-6.254c0-0.284-0.102-0.528-0.301-0.731
			c-0.201-0.204-0.441-0.305-0.719-0.305h-1.086V55.957z"/>
		<path fill="#FFFFFF" d="M68.459,45.783c0.879,0,1.578,0.277,2.098,0.833c0.484,0.529,0.729,1.202,0.729,2.019v1.737
			c0,0.787-0.275,1.459-0.826,2.019c-0.549,0.56-1.215,0.839-1.996,0.839h-1.039v4.51h-1.803V45.783H68.459z M69.533,48.667
			c0-0.314-0.092-0.567-0.277-0.757c-0.186-0.19-0.434-0.285-0.748-0.285h-1.084v3.822h1.084c0.287,0,0.531-0.102,0.729-0.305
			c0.199-0.203,0.297-0.447,0.297-0.731V48.667z"/>
		<path fill="#FFFFFF" d="M75.564,45.783c1.006,0,1.742,0.277,2.211,0.833c0.414,0.485,0.621,1.158,0.621,2.019v1.737
			c0,0.848-0.32,1.562-0.961,2.144l1.336,5.225h-1.945l-1.1-4.517c-0.053,0.004-0.105,0.006-0.162,0.006h-1.035v4.51h-1.803V45.783
			H75.564z M76.641,48.667c0-0.695-0.342-1.042-1.025-1.042h-1.086v3.822h1.086c0.287,0,0.529-0.102,0.729-0.305
			c0.197-0.203,0.297-0.447,0.297-0.731V48.667z"/>
		<path fill="#FFFFFF" d="M82.855,45.638c0.795,0,1.471,0.28,2.029,0.839c0.557,0.56,0.836,1.234,0.836,2.025v6.523
			c0,0.795-0.281,1.472-0.84,2.029c-0.561,0.557-1.234,0.836-2.025,0.836s-1.463-0.28-2.016-0.839
			c-0.553-0.559-0.83-1.234-0.83-2.025v-6.523c0-0.795,0.279-1.472,0.84-2.029C81.408,45.917,82.076,45.638,82.855,45.638z
			 M83.838,48.47c0-0.289-0.1-0.532-0.297-0.73c-0.199-0.199-0.443-0.298-0.732-0.298c-0.283,0-0.527,0.1-0.73,0.298
			s-0.305,0.442-0.305,0.73v6.544c0,0.284,0.102,0.526,0.305,0.727c0.203,0.201,0.447,0.301,0.73,0.301
			c0.289,0,0.533-0.101,0.732-0.301c0.197-0.201,0.297-0.443,0.297-0.727V48.47z"/>
		<path fill="#FFFFFF" d="M92.963,54.881c0,0.787-0.277,1.46-0.832,2.02c-0.555,0.559-1.223,0.839-2,0.839h-2.832V45.783h2.832
			c0.787,0,1.455,0.28,2.006,0.839c0.551,0.56,0.826,1.23,0.826,2.013V54.881z M89.102,55.957h1.086
			c0.287,0,0.529-0.104,0.725-0.311s0.295-0.452,0.295-0.731v-6.254c0-0.284-0.102-0.528-0.301-0.731
			c-0.201-0.204-0.441-0.305-0.719-0.305h-1.086V55.957z"/>
		<path fill="#FFFFFF" d="M97.381,57.891c-0.791,0-1.463-0.276-2.016-0.83c-0.553-0.553-0.828-1.222-0.828-2.009v-9.27h1.762v9.25
			c0,0.284,0.104,0.527,0.307,0.728c0.203,0.201,0.445,0.302,0.73,0.302c0.287,0,0.531-0.101,0.73-0.302
			c0.199-0.201,0.299-0.443,0.299-0.728v-9.25h1.881v9.27c0,0.799-0.279,1.473-0.84,2.019
			C98.848,57.618,98.172,57.891,97.381,57.891z"/>
		<path fill="#FFFFFF" d="M104.678,57.891c-0.795,0-1.471-0.277-2.025-0.833s-0.832-1.228-0.832-2.019V48.49
			c0-0.791,0.279-1.465,0.838-2.022c0.561-0.557,1.232-0.836,2.02-0.836c0.795,0,1.469,0.28,2.021,0.839
			c0.553,0.56,0.83,1.232,0.83,2.019v1.364h-1.869v-1.396c0-0.288-0.102-0.534-0.305-0.737s-0.449-0.305-0.736-0.305
			c-0.285,0-0.527,0.102-0.729,0.305s-0.301,0.449-0.301,0.737v6.562c0,0.289,0.1,0.533,0.301,0.734s0.443,0.302,0.729,0.302
			c0.287,0,0.533-0.101,0.736-0.302s0.305-0.446,0.305-0.734v-1.645h1.869v1.665c0,0.795-0.279,1.469-0.84,2.022
			C106.131,57.614,105.461,57.891,104.678,57.891z"/>
		<path fill="#FFFFFF" d="M110.684,47.585h-1.914v-1.803h5.623v1.803h-1.906V57.74h-1.803V47.585z"/>
		<path fill="#FFFFFF" d="M121.592,54.77c0.012,0.835-0.203,1.547-0.65,2.137c-0.293,0.402-0.705,0.684-1.238,0.846
			c-0.289,0.092-0.623,0.138-1.004,0.138c-0.707,0-1.293-0.175-1.756-0.524c-0.385-0.289-0.691-0.679-0.918-1.17
			s-0.359-1.059-0.393-1.701l1.711-0.118c0.078,0.695,0.264,1.197,0.557,1.508c0.215,0.236,0.461,0.347,0.74,0.334
			c0.395-0.013,0.709-0.205,0.945-0.577c0.121-0.188,0.182-0.453,0.182-0.793c0-0.502-0.225-0.999-0.674-1.488
			c-0.359-0.336-0.895-0.841-1.607-1.515c-0.598-0.577-1.02-1.095-1.264-1.553c-0.268-0.516-0.4-1.075-0.4-1.678
			c0-1.088,0.365-1.912,1.094-2.472c0.451-0.336,1.01-0.505,1.68-0.505c0.643,0,1.193,0.145,1.652,0.433
			c0.354,0.223,0.639,0.535,0.857,0.935s0.352,0.86,0.4,1.38l-1.73,0.314c-0.049-0.489-0.188-0.87-0.42-1.141
			c-0.166-0.201-0.404-0.302-0.715-0.302c-0.328,0-0.578,0.146-0.754,0.439c-0.139,0.236-0.209,0.529-0.209,0.878
			c0,0.546,0.236,1.104,0.707,1.672c0.18,0.214,0.447,0.467,0.801,0.76c0.42,0.35,0.697,0.594,0.832,0.734
			c0.441,0.446,0.785,0.885,1.029,1.317c0.113,0.201,0.205,0.389,0.275,0.564C121.492,54.047,121.582,54.429,121.592,54.77z"/>
		<path fill="#FFFFFF" d="M128.146,45.783c0.879,0,1.578,0.277,2.098,0.833c0.484,0.529,0.729,1.202,0.729,2.019v1.737
			c0,0.787-0.275,1.459-0.826,2.019c-0.549,0.56-1.215,0.839-1.996,0.839h-1.039v4.51h-1.803V45.783H128.146z M129.221,48.667
			c0-0.314-0.092-0.567-0.277-0.757c-0.186-0.19-0.434-0.285-0.748-0.285h-1.084v3.822h1.084c0.287,0,0.531-0.102,0.729-0.305
			c0.199-0.203,0.297-0.447,0.297-0.731V48.667z"/>
		<path fill="#FFFFFF" d="M134.066,57.74l-2.131-11.957h1.889l1.494,9.309l1.514-9.309h1.889l-2.17,11.957H134.066z"/>
		<path fill="#FFFFFF" d="M141.881,47.585h-1.914v-1.803h5.623v1.803h-1.906V57.74h-1.803V47.585z"/>
		<path fill="#FFFFFF" d="M152.984,57.74h-4.916V45.783h1.803V55.95h3.113V57.74z"/>
		<path fill="#FFFFFF" d="M154.355,47.585h-1.914v-1.803h5.623v1.803h-1.906V57.74h-1.803V47.585z"/>
		<path fill="#FFFFFF" d="M165.178,54.881c0,0.787-0.277,1.46-0.832,2.02c-0.555,0.559-1.223,0.839-2,0.839h-2.832V45.783h2.832
			c0.787,0,1.455,0.28,2.006,0.839c0.551,0.56,0.826,1.23,0.826,2.013V54.881z M161.316,55.957h1.086
			c0.287,0,0.529-0.104,0.725-0.311s0.295-0.452,0.295-0.731v-6.254c0-0.284-0.102-0.528-0.301-0.731
			c-0.201-0.204-0.441-0.305-0.719-0.305h-1.086V55.957z"/>
	</g>
</g>
</svg>
